<?xml version="1.0" encoding="utf-8"?>
<!-- Generator: Adobe Illustrator 20.1.0, SVG Export Plug-In . SVG Version: 6.00 Build 0)  -->
<svg version="1.1" id="Слой_1" xmlns="http://www.w3.org/2000/svg" xmlns:xlink="http://www.w3.org/1999/xlink" x="0px" y="0px"
	 viewBox="0 0 408.4 404.8" style="enable-background:new 0 0 408.4 404.8;" xml:space="preserve">
<style type="text/css">
	.st0{fill:#52AC62;}
	.st1{fill:#FFFFFF;}
	.st2{font-family:'TwCenMT-Bold';}
	.st3{font-size:76px;}
</style>
<g>
	<path class="st0" d="M350.1,202.4l-39.5,28.5l19.9,44.4l-48.5,4.9l-4.9,48.5l-44.4-20l-28.5,39.5l-28.5-39.5l-44.4,20l-4.9-48.5
		l-48.5-4.9l19.9-44.4l-39.5-28.5l39.5-28.5l-20-44.4l48.5-4.9l4.9-48.5l44.4,20l28.5-39.5L232.7,96l44.4-20l4.9,48.5l48.5,4.9
		l-19.9,44.4C310.6,173.9,350.1,202.4,350.1,202.4z"/>
</g>
<g>
	<text transform="matrix(1 0 0 1 123.5764 224.373)" class="st1 st2 st3">NEW</text>
</g>
</svg>
